<svg version="1.1" id="Layer_1" xmlns="http://www.w3.org/2000/svg" x="0" y="0" viewBox="0 0 1920 1920" xml:space="preserve"><style>.st1{fill:#00f995}</style><path d="M933.11 1635.95L285.8 1015.56c-23.25-22.29-24.04-59.2-1.75-82.45L904.44 285.8c22.29-23.25 59.2-24.04 82.45-1.75l647.31 620.39c23.25 22.29 24.04 59.2 1.75 82.45l-620.39 647.31c-22.29 23.25-59.2 24.04-82.45 1.75z" fill="#013158"/><path class="st1" d="M1041.46 708.07H767.03c-4.42 0-8-3.58-8-8v-31.48c0-4.42 3.58-8 8-8h274.43c4.42 0 8 3.58 8 8v31.48c0 4.41-3.59 8-8 8zM942.51 787.95H767.03c-4.42 0-8-3.58-8-8v-31.48c0-4.42 3.58-8 8-8h175.48c4.42 0 8 3.58 8 8v31.48c0 4.42-3.58 8-8 8zM911.67 867.84H767.03c-4.42 0-8-3.58-8-8v-31.48c0-4.42 3.58-8 8-8h144.64c4.42 0 8 3.58 8 8v31.48c0 4.42-3.58 8-8 8zM911.67 947.73H767.03c-4.42 0-8-3.58-8-8v-31.48c0-4.42 3.58-8 8-8h144.64c4.42 0 8 3.58 8 8v31.48c0 4.42-3.58 8-8 8zM911.67 1027.61H767.03c-4.42 0-8-3.58-8-8v-31.48c0-4.42 3.58-8 8-8h144.64c4.42 0 8 3.58 8 8v31.48c0 4.42-3.58 8-8 8zM911.67 1107.5H767.03c-4.42 0-8-3.58-8-8v-31.48c0-4.42 3.58-8 8-8h144.64c4.42 0 8 3.58 8 8v31.48c0 4.42-3.58 8-8 8zM1200.86 867.84h-143.4c-4.42 0-8-3.58-8-8v-31.48c0-4.42 3.58-8 8-8h143.4c4.42 0 8 3.58 8 8v31.48c0 4.42-3.59 8-8 8zM1218.01 947.73h-144.64c-4.42 0-8-3.58-8-8v-31.48c0-4.42 3.58-8 8-8h144.64c4.42 0 8 3.58 8 8v31.48c0 4.42-3.58 8-8 8zM1218.01 1027.61h-144.64c-4.42 0-8-3.58-8-8v-31.48c0-4.42 3.58-8 8-8h144.64c4.42 0 8 3.58 8 8v31.48c0 4.42-3.58 8-8 8zM1200.86 1107.5h-146.48c-4.42 0-8-3.58-8-8v-31.48c0-4.42 3.58-8 8-8h146.48c4.42 0 8 3.58 8 8v31.48c0 4.42-3.59 8-8 8zM1155.43 1187.39h-154.91c-4.42 0-8-3.58-8-8v-31.48c0-4.42 3.58-8 8-8h154.91c4.42 0 8 3.58 8 8v31.48c0 4.42-3.58 8-8 8zM1155.43 787.95h-154.91c-4.42 0-8-3.58-8-8v-31.48c0-4.42 3.58-8 8-8h154.91c4.42 0 8 3.58 8 8v31.48c0 4.42-3.58 8-8 8zM942.51 1187.39H767.03c-4.42 0-8-3.58-8-8v-31.48c0-4.42 3.58-8 8-8h175.48c4.42 0 8 3.58 8 8v31.48c0 4.42-3.58 8-8 8zM1031.52 1267.27H767.03c-4.42 0-8-3.58-8-8v-31.48c0-4.42 3.58-8 8-8h264.49c4.42 0 8 3.58 8 8v31.48c0 4.42-3.58 8-8 8z"/><g><path class="st1" d="M1351.39 1023.15c0-1.71.89-3.29 2.36-4.18l90.04-54.31v-1.46l-90.04-54.33a4.888 4.888 0 01-2.36-4.18v-44.82c0-3.85 4.25-6.18 7.5-4.11l134 85.45c1.4.9 2.26 2.45 2.26 4.11v37.19c0 1.67-.85 3.22-2.26 4.11l-134 85.46c-3.25 2.07-7.5-.26-7.5-4.11v-44.82z"/></g><g><path class="st1" d="M577.37 1072.1l-134-85.46c-1.4-.9-2.25-2.45-2.25-4.11v-37.19c0-1.67.85-3.22 2.26-4.11l134-85.45c3.25-2.07 7.5.26 7.5 4.11v44.82c0 1.71-.89 3.29-2.36 4.18l-90.04 54.33v1.46l90.04 54.31c1.46.88 2.36 2.47 2.36 4.18V1068c-.01 3.83-4.26 6.17-7.51 4.1z"/></g></svg>