<?xml version="1.0" encoding="UTF-8" standalone="no"?>
<!DOCTYPE svg PUBLIC "-//W3C//DTD SVG 1.1//EN" "http://www.w3.org/Graphics/SVG/1.1/DTD/svg11.dtd">
<svg version="1.1" xmlns="http://www.w3.org/2000/svg" xmlns:xlink="http://www.w3.org/1999/xlink" preserveAspectRatio="xMidYMid meet" viewBox="0 0 250 250" width="250" height="250"><defs><path d="M59.39 34.73C57.91 34.73 56.72 33.53 56.72 32.06C56.72 31.01 56.72 22.62 56.72 21.57C56.72 20.09 57.91 18.9 59.39 18.9C68.54 18.9 141.72 18.9 150.86 18.9C152.34 18.9 153.53 20.09 153.53 21.57C153.53 22.62 153.53 31.01 153.53 32.06C153.53 33.53 152.33 34.73 150.86 34.73C132.57 34.73 68.54 34.73 59.39 34.73Z" id="bN1Fq9sN2"></path><path d="M59.39 61.35C57.91 61.35 56.72 60.16 56.72 58.69C56.72 57.64 56.72 49.24 56.72 48.19C56.72 46.72 57.91 45.53 59.39 45.53C65.24 45.53 112.03 45.53 117.88 45.53C119.35 45.53 120.55 46.72 120.55 48.19C120.55 49.24 120.55 57.64 120.55 58.69C120.55 60.16 119.35 61.35 117.88 61.35C106.18 61.35 65.24 61.35 59.39 61.35Z" id="a5mtn01lv"></path><path d="M59.39 87.98C57.91 87.98 56.72 86.79 56.72 85.32C56.72 84.27 56.72 75.87 56.72 74.82C56.72 73.35 57.91 72.16 59.39 72.16C64.21 72.16 102.78 72.16 107.6 72.16C109.07 72.16 110.27 73.35 110.27 74.82C110.27 75.87 110.27 84.27 110.27 85.32C110.27 86.79 109.07 87.98 107.6 87.98C97.96 87.98 64.21 87.98 59.39 87.98Z" id="agjHYPVTY"></path><path d="M59.39 114.61C57.91 114.61 56.72 113.42 56.72 111.95C56.72 110.9 56.72 102.5 56.72 101.45C56.72 99.98 57.91 98.79 59.39 98.79C64.21 98.79 102.78 98.79 107.6 98.79C109.07 98.79 110.27 99.98 110.27 101.45C110.27 102.5 110.27 110.9 110.27 111.95C110.27 113.42 109.07 114.61 107.6 114.61C97.96 114.61 64.21 114.61 59.39 114.61Z" id="b5UHsmLtP"></path><path d="M59.39 141.24C57.91 141.24 56.72 140.05 56.72 138.57C56.72 137.52 56.72 129.13 56.72 128.08C56.72 126.61 57.91 125.41 59.39 125.41C64.21 125.41 102.78 125.41 107.6 125.41C109.07 125.41 110.27 126.61 110.27 128.08C110.27 129.13 110.27 137.52 110.27 138.57C110.27 140.05 109.07 141.24 107.6 141.24C97.96 141.24 64.21 141.24 59.39 141.24Z" id="b12BnL6Eu"></path><path d="M59.39 167.87C57.91 167.87 56.72 166.68 56.72 165.2C56.72 164.15 56.72 155.76 56.72 154.71C56.72 153.24 57.91 152.04 59.39 152.04C64.21 152.04 102.78 152.04 107.6 152.04C109.07 152.04 110.27 153.24 110.27 154.71C110.27 155.76 110.27 164.15 110.27 165.2C110.27 166.68 109.07 167.87 107.6 167.87C97.96 167.87 64.21 167.87 59.39 167.87Z" id="d3z5zCkyQ6"></path><path d="M156.2 87.98C154.72 87.98 153.53 86.79 153.53 85.32C153.53 84.27 153.53 75.87 153.53 74.82C153.53 73.35 154.72 72.16 156.2 72.16C160.98 72.16 199.22 72.16 204 72.16C205.47 72.16 206.66 73.35 206.66 74.82C206.66 75.87 206.66 84.27 206.66 85.32C206.66 86.79 205.47 87.98 204 87.98C194.44 87.98 160.98 87.98 156.2 87.98Z" id="c5OAKSo6O"></path><path d="M161.5 114.61C160.03 114.61 158.83 113.42 158.83 111.95C158.83 110.9 158.83 102.5 158.83 101.45C158.83 99.98 160.03 98.79 161.5 98.79C166.32 98.79 204.89 98.79 209.71 98.79C211.19 98.79 212.38 99.98 212.38 101.45C212.38 102.5 212.38 110.9 212.38 111.95C212.38 113.42 211.19 114.61 209.71 114.61C200.07 114.61 166.32 114.61 161.5 114.61Z" id="a1FuXrTKhE"></path><path d="M161.5 141.24C160.03 141.24 158.83 140.05 158.83 138.57C158.83 137.52 158.83 129.13 158.83 128.08C158.83 126.61 160.03 125.41 161.5 125.41C166.32 125.41 204.89 125.41 209.71 125.41C211.19 125.41 212.38 126.61 212.38 128.08C212.38 129.13 212.38 137.52 212.38 138.57C212.38 140.05 211.19 141.24 209.71 141.24C200.07 141.24 166.32 141.24 161.5 141.24Z" id="c7GvpwzV0z"></path><path d="M155.17 167.87C153.7 167.87 152.5 166.68 152.5 165.2C152.5 164.15 152.5 155.76 152.5 154.71C152.5 153.24 153.7 152.04 155.17 152.04C160.05 152.04 199.12 152.04 204 152.04C205.47 152.04 206.66 153.24 206.66 154.71C206.66 155.76 206.66 164.15 206.66 165.2C206.66 166.68 205.47 167.87 204 167.87C194.23 167.87 160.05 167.87 155.17 167.87Z" id="bETvYGyO"></path><path d="M137.22 194.5C135.74 194.5 134.55 193.31 134.55 191.83C134.55 190.78 134.55 182.39 134.55 181.34C134.55 179.87 135.74 178.67 137.22 178.67C142.38 178.67 183.69 178.67 188.85 178.67C190.33 178.67 191.52 179.87 191.52 181.34C191.52 182.39 191.52 190.78 191.52 191.83C191.52 193.31 190.33 194.5 188.85 194.5C178.53 194.5 142.38 194.5 137.22 194.5Z" id="a8l2T8wjdt"></path><path d="M137.22 61.35C135.74 61.35 134.55 60.16 134.55 58.69C134.55 57.64 134.55 49.24 134.55 48.19C134.55 46.72 135.74 45.53 137.22 45.53C142.38 45.53 183.69 45.53 188.85 45.53C190.33 45.53 191.52 46.72 191.52 48.19C191.52 49.24 191.52 57.64 191.52 58.69C191.52 60.16 190.33 61.35 188.85 61.35C178.53 61.35 142.38 61.35 137.22 61.35Z" id="c1PetITkZW"></path><path d="M59.39 194.5C57.91 194.5 56.72 193.31 56.72 191.83C56.72 190.78 56.72 182.39 56.72 181.34C56.72 179.87 57.91 178.67 59.39 178.67C65.24 178.67 112.03 178.67 117.88 178.67C119.35 178.67 120.55 179.87 120.55 181.34C120.55 182.39 120.55 190.78 120.55 191.83C120.55 193.31 119.35 194.5 117.88 194.5C106.18 194.5 65.24 194.5 59.39 194.5Z" id="a19ZsS4aAA"></path><path d="M59.39 221.13C57.91 221.13 56.72 219.93 56.72 218.46C56.72 217.41 56.72 209.02 56.72 207.97C56.72 206.49 57.91 205.3 59.39 205.3C68.2 205.3 138.74 205.3 147.55 205.3C149.02 205.3 150.22 206.49 150.22 207.97C150.22 209.02 150.22 217.41 150.22 218.46C150.22 219.93 149.02 221.13 147.55 221.13C129.92 221.13 68.2 221.13 59.39 221.13Z" id="e8vMRd0w8"></path></defs><g><g><g><use xlink:href="#bN1Fq9sN2" opacity="1" fill="#00f995" fill-opacity="1"></use><g><use xlink:href="#bN1Fq9sN2" opacity="1" fill-opacity="0" stroke="#000000" stroke-width="1" stroke-opacity="0"></use></g></g><g><use xlink:href="#a5mtn01lv" opacity="1" fill="#00f995" fill-opacity="1"></use><g><use xlink:href="#a5mtn01lv" opacity="1" fill-opacity="0" stroke="#000000" stroke-width="1" stroke-opacity="0"></use></g></g><g><use xlink:href="#agjHYPVTY" opacity="1" fill="#00f995" fill-opacity="1"></use><g><use xlink:href="#agjHYPVTY" opacity="1" fill-opacity="0" stroke="#000000" stroke-width="1" stroke-opacity="0"></use></g></g><g><use xlink:href="#b5UHsmLtP" opacity="1" fill="#00f995" fill-opacity="1"></use><g><use xlink:href="#b5UHsmLtP" opacity="1" fill-opacity="0" stroke="#000000" stroke-width="1" stroke-opacity="0"></use></g></g><g><use xlink:href="#b12BnL6Eu" opacity="1" fill="#00f995" fill-opacity="1"></use><g><use xlink:href="#b12BnL6Eu" opacity="1" fill-opacity="0" stroke="#000000" stroke-width="1" stroke-opacity="0"></use></g></g><g><use xlink:href="#d3z5zCkyQ6" opacity="1" fill="#00f995" fill-opacity="1"></use><g><use xlink:href="#d3z5zCkyQ6" opacity="1" fill-opacity="0" stroke="#000000" stroke-width="1" stroke-opacity="0"></use></g></g><g><use xlink:href="#c5OAKSo6O" opacity="1" fill="#00f995" fill-opacity="1"></use><g><use xlink:href="#c5OAKSo6O" opacity="1" fill-opacity="0" stroke="#000000" stroke-width="1" stroke-opacity="0"></use></g></g><g><use xlink:href="#a1FuXrTKhE" opacity="1" fill="#00f995" fill-opacity="1"></use><g><use xlink:href="#a1FuXrTKhE" opacity="1" fill-opacity="0" stroke="#000000" stroke-width="1" stroke-opacity="0"></use></g></g><g><use xlink:href="#c7GvpwzV0z" opacity="1" fill="#00f995" fill-opacity="1"></use><g><use xlink:href="#c7GvpwzV0z" opacity="1" fill-opacity="0" stroke="#000000" stroke-width="1" stroke-opacity="0"></use></g></g><g><use xlink:href="#bETvYGyO" opacity="1" fill="#00f995" fill-opacity="1"></use><g><use xlink:href="#bETvYGyO" opacity="1" fill-opacity="0" stroke="#000000" stroke-width="1" stroke-opacity="0"></use></g></g><g><use xlink:href="#a8l2T8wjdt" opacity="1" fill="#00f995" fill-opacity="1"></use><g><use xlink:href="#a8l2T8wjdt" opacity="1" fill-opacity="0" stroke="#000000" stroke-width="1" stroke-opacity="0"></use></g></g><g><use xlink:href="#c1PetITkZW" opacity="1" fill="#00f995" fill-opacity="1"></use><g><use xlink:href="#c1PetITkZW" opacity="1" fill-opacity="0" stroke="#000000" stroke-width="1" stroke-opacity="0"></use></g></g><g><use xlink:href="#a19ZsS4aAA" opacity="1" fill="#00f995" fill-opacity="1"></use><g><use xlink:href="#a19ZsS4aAA" opacity="1" fill-opacity="0" stroke="#000000" stroke-width="1" stroke-opacity="0"></use></g></g><g><use xlink:href="#e8vMRd0w8" opacity="1" fill="#00f995" fill-opacity="1"></use><g><use xlink:href="#e8vMRd0w8" opacity="1" fill-opacity="0" stroke="#000000" stroke-width="1" stroke-opacity="0"></use></g></g></g></g></svg>